HIERARCHY
ROOT Hips
{
	OFFSET -3.958830 18.904000 13.208200
	CHANNELS 6 Xposition Yposition Zposition Zrotation Yrotation Xrotation 
	JOINT LHipJoint
	{
		OFFSET 0.000000 0.000000 0.000000
		CHANNELS 3 Zrotation Yrotation Xrotation
		JOINT LeftUpLeg
		{
			OFFSET 1.800000 -1.400000 0.085000
			CHANNELS 3 Zrotation Yrotation Xrotation
			JOINT LeftLeg
			{
				OFFSET 2.215000 -6.000000 0.000000
				CHANNELS 3 Zrotation Yrotation Xrotation
				JOINT LeftFoot
				{
					OFFSET 2.500000 -6.900000 0.000000
					CHANNELS 3 Zrotation Yrotation Xrotation
					JOINT LeftToeBase
					{
						OFFSET 0.200000 -0.500000 1.950000
						CHANNELS 3 Zrotation Yrotation Xrotation
						End Site
						{
							OFFSET 0.000000 0.000000 0.000000
						}
					}
				}
			}
		}
	}
	JOINT RHipJoint
	{
		OFFSET 0.000000 0.000000 0.000000
		CHANNELS 3 Zrotation Yrotation Xrotation
		JOINT RightUpLeg
		{
			OFFSET -1.800000 -1.400000 0.085000
			CHANNELS 3 Zrotation Yrotation Xrotation
			JOINT RightLeg
			{
				OFFSET -2.215000 -6.000000 0.000000
				CHANNELS 3 Zrotation Yrotation Xrotation
				JOINT RightFoot
				{
					OFFSET -2.500000 -6.900000 0.000000
					CHANNELS 3 Zrotation Yrotation Xrotation
					JOINT RightToeBase
					{
						OFFSET -0.200000 -0.500000 1.950000
						CHANNELS 3 Zrotation Yrotation Xrotation
						End Site
						{
							OFFSET 0.000000 0.000000 0.000000
						}
					}
				}
			}
		}
	}
	JOINT LowerBack
	{
		OFFSET 0.000000 0.000000 0.000000
		CHANNELS 3 Zrotation Yrotation Xrotation
		JOINT Spine
		{
			OFFSET -0.087000 1.940000 -0.288900
			CHANNELS 3 Zrotation Yrotation Xrotation
			JOINT Spine1
			{
				OFFSET 0.000000 1.950000 0.060000
				CHANNELS 3 Zrotation Yrotation Xrotation
				JOINT Neck
				{
					OFFSET 0.000000 0.000000 0.000000
					CHANNELS 3 Zrotation Yrotation Xrotation
					JOINT Neck1
					{
						OFFSET 0.000000 1.600000 0.340000
						CHANNELS 3 Zrotation Yrotation Xrotation
						JOINT Head
						{
							OFFSET 0.000000 1.667000 -0.240000
							CHANNELS 3 Zrotation Yrotation Xrotation
							End Site
							{
								OFFSET 0.000000 0.000000 0.000000
							}
						}
					}
				}
				JOINT LeftShoulder
				{
					OFFSET 0.000000 0.000000 0.000000
					CHANNELS 3 Zrotation Yrotation Xrotation
					JOINT LeftArm
					{
						OFFSET 2.700000 1.550000 -0.730000
						CHANNELS 3 Zrotation Yrotation Xrotation
						JOINT LeftForeArm
						{
							OFFSET 5.450000 0.000000 0.000000
							CHANNELS 3 Zrotation Yrotation Xrotation
							JOINT LeftHand
							{
								OFFSET 3.450000 0.000000 0.000000
								CHANNELS 3 Zrotation Yrotation Xrotation
								JOINT LeftHandIndex1
								{
									OFFSET 0.750000 0.000000 0.000000
									CHANNELS 3 Zrotation Yrotation Xrotation
									End Site
									{
										OFFSET 0.000000 0.000000 0.000000
									}
								}
							}
						}
					}
				}
				JOINT RightShoulder
				{
					OFFSET 0.000000 0.000000 0.000000
					CHANNELS 3 Zrotation Yrotation Xrotation
					JOINT RightArm
					{
						OFFSET -2.700000 1.550000 -0.730000
						CHANNELS 3 Zrotation Yrotation Xrotation
						JOINT RightForeArm
						{
							OFFSET -5.450000 0.000000 0.000000
							CHANNELS 3 Zrotation Yrotation Xrotation
							JOINT RightHand
							{
								OFFSET -3.450000 0.000000 0.000000
								CHANNELS 3 Zrotation Yrotation Xrotation
								JOINT RightHandIndex1
								{
									OFFSET -0.750000 0.000000 0.000000
									CHANNELS 3 Zrotation Yrotation Xrotation
									End Site
									{
										OFFSET 0.000000 0.000000 0.000000
									}
								}
							}
						}
					}
				}
			}
		}
	}
}
MOTION
Frames: 12
Frame Time: 0.016667
0.179200 17.049660 -1.489580 -2.198957 -10.154612 4.298262 -15.360759 13.814138 3.078851 -0.666623 0.862549 -0.695866 -6.262063 5.399982 7.299547 -0.204661 4.455159 3.367586 0.428540 -0.181010 0.429670 18.200570 -9.565300 3.359977 3.230772 4.074472 -28.060250 4.215493 -2.484385 4.437020 0.063252 -1.327604 4.252592 -0.168950 0.211710 0.194470 -3.117903 -4.128425 -7.700484 8.862505 -9.338754 11.974469 -5.425419 -8.730646 -0.235766 3.839109 -5.800702 -5.806335 -13.096716 10.793250 35.137849 -2.520610 9.304700 -5.838490 -7.444971 18.785440 -2.011128 -59.512315 17.505482 -17.129501 -1.828554 -11.128903 -2.249985 -3.827555 2.523271 0.778950 0.067440 -0.064410 0.255350 0.395716 -16.936024 3.820667 60.774527 -23.012258 -25.012902 47.449417 42.817263 12.205238 1.696569 -1.704593 -0.253200 0.135810 -0.110890 -0.373530 
0.180810 17.031520 -1.464920 -2.364529 -11.623170 5.462990 -15.343268 13.624541 3.063084 -0.721398 0.875500 -0.620997 -7.149189 5.330713 5.801731 -0.162918 4.452933 3.378323 0.444620 -0.148360 0.406550 18.260215 -9.470337 3.401376 3.381182 4.095106 -26.913711 4.993575 -2.157221 0.525411 0.038937 -1.443602 4.232270 -0.151830 0.233410 0.224860 -3.252099 -3.943736 -7.671487 10.202828 -9.226181 10.797929 -5.630682 -8.645855 -0.362515 3.709609 -5.988414 -5.482278 -12.978225 11.013798 33.434831 -3.106980 9.990920 -5.250180 -6.915679 19.595525 -2.010034 -58.238463 18.507331 -17.098875 -1.068260 -11.196171 -2.214748 -3.853478 2.579945 0.731010 0.103820 -0.075880 0.287800 -0.031429 -17.608767 3.610100 59.567388 -22.845587 -24.428595 46.470400 44.761569 12.933461 1.662380 -1.818681 -0.227180 0.105280 -0.129700 -0.348920 
0.187730 17.023570 -1.439720 -2.696088 -12.654645 6.611428 -15.307047 13.511130 3.064327 -0.775171 0.845913 -0.831165 -7.563857 5.196573 4.578821 -0.130975 4.402005 3.411556 0.432300 -0.142860 0.363650 18.317658 -9.399573 3.466381 3.851372 4.278251 -26.421771 5.109779 -1.895347 -1.803727 0.035354 -1.515689 4.232039 -0.150950 0.263680 0.222470 -3.403096 -3.841903 -7.699488 11.893975 -9.374345 10.447725 -5.707893 -8.691853 -2.057159 3.552515 -6.501235 -5.224842 -13.563286 11.350034 31.841027 -3.052350 10.339860 -4.368460 -6.478939 20.931526 -2.163169 -56.669539 20.263831 -17.006223 1.078931 -10.643841 -2.157774 -3.882399 2.596112 0.690510 0.126260 -0.099630 0.311980 -0.320654 -18.456132 3.367749 57.417514 -23.022348 -23.490597 44.694288 46.265027 13.296535 1.650768 -1.897991 -0.221000 0.096380 -0.136680 -0.321990 
0.179730 17.023360 -1.419660 -2.808177 -13.388799 7.418227 -15.283916 13.430383 3.069474 -0.773778 0.813931 -0.952972 -7.930754 5.108785 3.650322 -0.103264 4.385429 3.437280 0.419930 -0.138410 0.339440 18.356530 -9.355562 3.496691 4.231999 4.448027 -26.400097 5.358407 -1.798992 -2.573135 0.040448 -1.547723 4.234838 -0.146940 0.297670 0.217370 -3.505524 -3.769249 -7.694195 12.935974 -9.605022 10.214612 -5.984432 -8.863757 -3.308379 3.369613 -6.812294 -4.883333 -13.798711 11.800093 30.338253 -2.947410 10.860040 -3.899650 -6.208376 21.884076 -2.248021 -54.850634 21.655773 -16.745410 2.753254 -10.219436 -2.068529 -3.913568 2.602136 0.653690 0.149750 -0.119140 0.327880 -0.339715 -19.210807 3.002900 56.087718 -23.192974 -23.161880 41.803643 47.345874 12.907996 1.646754 -1.937960 -0.222130 0.104300 -0.142270 -0.300680 
0.171970 17.027740 -1.403070 -2.875006 -13.885575 7.909855 -15.267894 13.371070 3.073495 -0.763717 0.807555 -0.945418 -8.253140 5.078327 3.097808 -0.072543 4.389796 3.446122 0.418740 -0.121200 0.322590 18.383495 -9.345795 3.499425 4.503333 4.613718 -26.765475 5.484994 -1.806047 -2.200658 0.056584 -1.541870 4.239612 -0.136570 0.323780 0.221500 -3.577129 -3.680505 -7.659951 13.551483 -9.614728 9.912522 -5.981395 -8.860745 -4.044563 3.084881 -6.980641 -4.497911 -13.886258 12.057431 29.248719 -2.701350 11.004240 -3.435260 -6.125121 22.480285 -2.314812 -53.564503 22.302703 -16.479659 4.312690 -10.285381 -2.019211 -3.942671 2.629349 0.608590 0.173170 -0.135750 0.339410 0.063039 -19.686411 2.565271 54.968078 -23.065065 -22.900631 38.153641 47.852161 11.907337 1.652699 -1.963196 -0.209460 0.103390 -0.147310 -0.278500 
0.159760 17.030030 -1.403310 -2.463121 -13.981721 8.153073 -15.298453 13.362031 3.066156 -1.177382 0.800025 -1.282361 -8.256053 5.057746 3.232612 -0.094361 4.381221 3.451092 0.436830 -0.088580 0.313460 18.363730 -9.334866 3.469964 4.430921 4.725006 -27.757913 5.390384 -1.889905 -0.852184 0.092307 -1.517081 4.239520 -0.099400 0.357300 0.237870 -3.507911 -3.691098 -7.576203 12.664637 -9.409730 9.470926 -5.051890 -8.768665 -3.938651 2.549178 -6.919542 -3.896887 -13.602387 11.978082 27.726919 -2.578000 10.752430 -3.303630 -6.172609 22.760251 -2.384337 -52.903587 22.023007 -16.179904 5.481894 -10.467709 -2.040353 -3.988235 2.675188 0.559890 0.213990 -0.165730 0.351210 1.292611 -19.967309 1.872617 53.671589 -22.900280 -22.660088 35.111700 48.838275 11.120824 1.628721 -2.015749 -0.203010 0.101310 -0.147520 -0.264940 
0.151040 17.039190 -1.417090 -1.857584 -13.720533 8.090843 -15.348055 13.395139 3.077991 -1.743735 0.831984 -1.487341 -7.972313 4.992475 3.365021 -0.118688 4.342720 3.455874 0.467270 -0.046600 0.328890 18.318206 -9.317154 3.435292 3.981939 4.751912 -28.934354 5.277624 -2.000989 0.730381 0.110791 -1.472208 4.231430 -0.064590 0.352870 0.253190 -3.367165 -3.791301 -7.525667 11.204745 -9.100864 9.262925 -3.942048 -8.583614 -3.528163 2.163718 -6.626774 -3.472648 -13.140994 11.472037 27.304658 -2.890820 10.342490 -3.740540 -6.364658 22.512990 -2.442721 -52.775021 20.676731 -15.633814 6.634369 -10.114389 -2.046633 -4.007172 2.713428 0.537030 0.227330 -0.167060 0.355530 2.436527 -19.859123 1.259108 53.772702 -22.168845 -23.049632 29.988020 49.328134 9.311203 1.625309 -2.016476 -0.189830 0.091730 -0.158550 -0.262140 
0.152320 17.047860 -1.429170 -1.498178 -13.010955 7.913345 -15.374846 13.391515 3.048867 -2.008987 0.838424 -1.726369 -7.714641 4.997589 3.867879 -0.175135 4.331945 3.453412 0.482310 -0.024290 0.346740 18.297106 -9.340407 3.397717 3.482212 4.705232 -29.716804 5.137108 -2.099086 1.838085 0.125598 -1.466201 4.222053 -0.032140 0.354750 0.254340 -3.300304 -3.749086 -7.440466 10.325445 -8.742128 8.754067 -3.504570 -8.363611 -2.284781 2.059971 -5.885853 -3.095681 -11.804628 10.609320 27.352002 -3.527340 9.915990 -4.447300 -6.414167 21.797807 -2.565149 -53.300774 18.357498 -15.084060 8.296264 -9.896009 -2.130725 -4.038811 2.712472 0.530950 0.247640 -0.175710 0.347550 2.786788 -19.752777 0.814753 55.433538 -20.758874 -23.768355 24.337694 48.475636 6.920360 1.617854 -1.947046 -0.201550 0.105570 -0.154910 -0.275950 
0.157210 17.053140 -1.440350 -1.339605 -11.908186 7.831414 -15.395663 13.370842 3.012509 -1.970743 0.802988 -1.900003 -7.562002 4.965235 3.986669 -0.239895 4.355371 3.446343 0.508210 -0.000850 0.373080 18.288224 -9.347923 3.354237 3.039590 4.666865 -30.393835 5.022859 -2.183370 2.801886 0.133393 -1.484507 4.196948 0.011620 0.365640 0.266940 -3.266929 -3.705872 -7.335010 9.974172 -8.639058 8.021548 -3.273009 -8.384320 -1.070692 1.982051 -5.232153 -2.609253 -10.650350 9.795330 27.254382 -4.214860 9.424830 -4.903860 -6.551498 21.314463 -2.900058 -53.792492 15.605468 -14.189464 9.382620 -9.158963 -2.176652 -4.082162 2.715218 0.525490 0.276190 -0.186610 0.348580 3.146335 -19.918180 0.425672 56.369734 -19.599338 -23.850984 21.565617 48.325386 5.819681 1.589081 -1.936722 -0.218820 0.120520 -0.154880 -0.291590 
0.154250 17.052060 -1.449600 -0.888869 -10.880193 7.753125 -15.439223 13.364258 2.982764 -2.150632 0.784657 -2.145400 -7.463446 4.972992 4.299238 -0.301358 4.382441 3.439334 0.527410 0.018350 0.397010 18.256441 -9.343779 3.307792 2.443438 4.555743 -30.978507 4.892311 -2.229108 3.407752 0.150514 -1.514828 4.179294 0.053040 0.385810 0.273570 -3.164227 -3.711172 -7.232926 8.949151 -8.363589 7.188471 -2.765207 -8.266876 -0.121196 1.922372 -4.379304 -2.088669 -9.198373 9.060835 27.377880 -4.852220 9.101970 -4.871600 -7.163062 20.601358 -3.229025 -53.774762 12.662647 -12.888477 10.301589 -8.268572 -2.169999 -4.136723 2.717720 0.505810 0.317650 -0.211100 0.344640 4.039958 -19.909288 -0.100880 56.862152 -17.995008 -23.386571 18.082033 47.616689 4.425829 1.569391 -1.907665 -0.237030 0.137490 -0.150860 -0.308250 
0.159600 17.050040 -1.459850 -0.761691 -9.996946 7.655317 -15.446936 13.339049 2.941009 -2.148478 0.743059 -2.369539 -7.375655 5.005410 4.804427 -0.352357 4.404721 3.430741 0.562650 0.048790 0.434430 18.255319 -9.366934 3.284873 2.097845 4.506352 -31.324215 4.814469 -2.253051 3.766925 0.149305 -1.551028 4.145469 0.096010 0.386950 0.289310 -3.158234 -3.623214 -7.152400 8.781856 -8.178360 6.615233 -2.738045 -8.163107 0.607630 2.008005 -3.693371 -1.637828 -7.989900 8.400302 27.487869 -5.572100 8.896030 -4.858320 -8.520395 19.704217 -3.610151 -53.511207 10.408133 -11.958092 11.741368 -8.371528 -2.276559 -4.160231 2.748658 0.494000 0.343080 -0.219120 0.348560 5.296472 -19.652684 -0.478279 56.921209 -16.787413 -22.949645 15.574228 47.463466 3.441883 1.555197 -1.914978 -0.244850 0.136330 -0.163110 -0.323970 
0.163520 17.043300 -1.485320 -0.714443 -9.856283 7.610920 -15.452207 13.299990 2.919119 -2.270840 0.694034 -2.720991 -7.574196 5.060180 5.187426 -0.402558 4.419238 3.422645 0.592010 0.085800 0.462860 18.257681 -9.374643 3.293644 2.223497 4.637959 -32.016266 4.402104 -2.242081 4.403777 0.155435 -1.533875 4.132717 0.141170 0.391210 0.289090 -3.156405 -3.529127 -7.113230 8.502687 -7.742189 6.455439 -2.478194 -7.744402 1.026669 1.948826 -3.242850 -1.240323 -7.196603 7.929193 27.504626 -5.847060 8.560060 -5.282420 -10.328450 18.705999 -3.975975 -53.054401 8.498753 -11.157694 13.723465 -8.886353 -2.456058 -4.173519 2.758992 0.486180 0.359420 -0.225040 0.347640 7.257597 -18.953407 -0.874924 56.249603 -15.637660 -22.405453 13.081508 47.905258 2.548913 1.541309 -1.909295 -0.257180 0.155520 -0.168920 -0.334330 
